# WaveFront *.obj file (generated by Cheetah3D)

mtllib Cube.mtl

g 1
v 0.500000 0.002500 0.500000
v 0.500000 -0.500000 0.002500
v -0.002500 -0.500000 0.500000
v 0.500000 -0.500000 0.500000
v 0.450000 0.002500 0.450000
v 0.450000 -0.450000 0.450000
v -0.002500 -0.450000 0.450000
v 0.450000 -0.450000 0.002500

vt 1.000000 0.250000
vt 1.000000 0.000000
vt 0.750000 0.000000
vt 0.250000 0.000000
vt 0.000000 0.000000
vt 0.000000 0.250000
vt 0.750000 1.000000
vt 1.000000 1.000000
vt 1.000000 0.750000
vt 0.000000 1.000000

vn 0.000000 0.000000 1.000000
vn 1.000000 -0.000000 -0.000000
vn 0.000000 -1.000000 0.000000
vn 0.000000 0.000000 -1.000000
vn -1.000000 0.000000 0.000000
vn 0.000000 1.000000 -0.000000
vn -0.577350 0.577350 0.577350
vn 0.577345 0.574306 -0.580384
vn -0.574306 -0.577345 -0.580384

usemtl Velvet.2.2.3.2.2.2.2.2
f 3/3/1 4/2/1 1/1/1
f 1/6/2 4/5/2 2/4/2
f 2/9/3 4/8/3 3/7/3
f 6/2/4 7/3/4 5/1/4
f 6/5/5 5/6/5 8/4/5
f 6/8/6 8/9/6 7/7/6
f 5/10/7 7/8/7 3/2/7 1/5/7
f 8/10/8 5/8/8 1/2/8 2/5/8
f 7/10/9 8/8/9 2/2/9 3/5/9

usemtl default

g 2
v -0.500000 -0.500000 0.500000
v -0.500000 -0.002500 0.500000
v -0.500000 -0.500000 -0.002500
v -0.002500 -0.500000 0.500000
v -0.450000 -0.002500 0.450000
v -0.450000 -0.450000 0.450000
v -0.450000 -0.450000 -0.002500
v -0.002500 -0.450000 0.450000

vt 1.000000 0.250000
vt 1.000000 0.000000
vt 0.750000 0.000000
vt 0.250000 0.000000
vt 0.000000 0.000000
vt 0.000000 0.250000
vt 0.000000 0.750000
vt 0.000000 1.000000
vt 0.250000 1.000000
vt 1.000000 1.000000

vn -1.000000 0.000000 0.000000
vn 0.000000 0.000000 1.000000
vn 0.000000 -1.000000 0.000000
vn 1.000000 -0.000000 -0.000000
vn 0.000000 0.000000 -1.000000
vn 0.000000 1.000000 -0.000000
vn -0.577345 0.580384 -0.574306
vn 0.577350 0.577350 0.577350
vn 0.580384 -0.577345 -0.574306

usemtl Velvet.2.2.2.2.2
f 11/13/10 9/12/10 10/11/10
f 10/16/11 9/15/11 12/14/11
f 12/19/12 9/18/12 11/17/12
f 14/12/13 15/13/13 13/11/13
f 14/15/14 13/16/14 16/14/14
f 14/18/15 16/19/15 15/17/15
f 13/18/16 15/20/16 11/12/16 10/15/16
f 16/18/17 13/20/17 10/12/17 12/15/17
f 15/18/18 16/20/18 12/12/18 11/15/18

usemtl default

g 3
v -0.500000 0.002500 -0.500000
v -0.500000 -0.500000 -0.002500
v 0.002500 -0.500000 -0.500000
v -0.500000 -0.500000 -0.500000
v 0.002500 -0.450000 -0.450000
v -0.450000 -0.450000 -0.450000
v -0.450000 -0.450000 -0.002500
v -0.450000 0.002500 -0.450000

vt 0.250000 0.000000
vt 0.000000 0.000000
vt 0.000000 0.250000
vt 1.000000 0.250000
vt 1.000000 0.000000
vt 0.750000 0.000000
vt 1.000000 1.000000
vt 0.000000 1.000000

vn 0.000000 -1.000000 0.000000
vn -1.000000 0.000000 0.000000
vn 0.000000 0.000000 -1.000000
vn 0.000000 1.000000 -0.000000
vn 1.000000 -0.000000 -0.000000
vn 0.000000 0.000000 1.000000
vn 0.574306 -0.577345 0.580384
vn -0.577345 0.574306 0.580384
vn 0.577350 0.577350 -0.577350

usemtl Velvet.2.2.2.2.2.2
f 18/23/19 20/22/19 19/21/19
f 17/23/20 20/22/20 18/21/20
f 19/26/21 20/25/21 17/24/21
f 22/22/22 23/23/22 21/21/22
f 22/22/23 24/23/23 23/21/23
f 22/25/24 21/26/24 24/24/24
f 21/28/25 23/27/25 18/25/25 19/22/25
f 23/28/26 24/27/26 17/25/26 18/22/26
f 24/28/27 21/27/27 19/25/27 17/22/27

usemtl default

g 4
v 0.499999 -0.500000 0.002500
v 0.499999 -0.500000 -0.500000
v 0.002500 -0.500000 -0.500000
v 0.500000 -0.002500 -0.500000
v 0.450000 -0.002500 -0.450000
v 0.450000 -0.450000 -0.450000
v 0.450000 -0.450000 0.002500
v 0.002500 -0.450000 -0.450000

vt 1.000000 0.250000
vt 1.000000 0.000000
vt 0.750000 0.000000
vt 0.250000 0.000000
vt 0.000000 0.000000
vt 0.000000 0.250000
vt 1.000000 1.000000
vt 0.000000 1.000000

vn 1.000000 -0.000000 -0.000000
vn 0.000000 -1.000000 0.000000
vn 0.000000 0.000000 -1.000000
vn -1.000000 0.000000 0.000000
vn 0.000000 1.000000 -0.000000
vn 0.000000 0.000000 1.000000
vn 0.577345 0.580384 0.574306
vn -0.580384 -0.577345 0.574306
vn -0.577350 0.577350 -0.577350

usemtl Velvet.2.2.3.2.2
f 25/31/28 26/30/28 28/29/28
f 27/31/29 26/30/29 25/29/29
f 28/34/30 26/33/30 27/32/30
f 30/30/31 31/31/31 29/29/31
f 30/30/32 32/31/32 31/29/32
f 30/33/33 29/34/33 32/32/33
f 29/36/34 31/35/34 25/30/34 28/33/34
f 31/36/35 32/35/35 27/30/35 25/33/35
f 32/36/36 29/35/36 28/30/36 27/33/36

usemtl default

g 5
v 0.500000 0.500000 -0.500000
v 0.500000 0.500000 0.002500
v 0.500000 -0.002500 -0.500000
v 0.002500 0.500000 -0.500000
v 0.002500 0.450000 -0.450000
v 0.450000 0.450000 -0.450000
v 0.450000 0.450000 0.002500
v 0.450000 -0.002500 -0.450000

vt 0.750000 1.000000
vt 1.000000 1.000000
vt 1.000000 0.750000
vt 0.000000 0.750000
vt 0.000000 1.000000
vt 0.250000 1.000000
vt 0.000000 0.000000
vt 1.000000 0.000000

vn 0.000000 1.000000 -0.000000
vn 1.000000 -0.000000 -0.000000
vn 0.000000 0.000000 -1.000000
vn 0.000000 -1.000000 0.000000
vn -1.000000 0.000000 0.000000
vn 0.000000 0.000000 1.000000
vn -0.580384 0.577345 0.574306
vn 0.577350 -0.577350 0.577350
vn -0.580384 -0.574306 -0.577345

usemtl Velvet.2.2.3
f 34/39/37 33/38/37 36/37/37
f 35/39/38 33/38/38 34/37/38
f 36/42/39 33/41/39 35/40/39
f 38/38/40 39/39/40 37/37/40
f 38/38/41 40/39/41 39/37/41
f 38/41/42 37/42/42 40/40/42
f 37/41/43 39/38/43 34/44/43 36/43/43
f 39/41/44 40/38/44 35/44/44 34/43/44
f 40/41/45 37/38/45 36/44/45 35/43/45

usemtl default

g 6
v 0.500000 0.500000 0.500000
v 0.500000 0.500000 0.002500
v -0.002500 0.500000 0.500000
v 0.500000 0.002500 0.500000
v 0.450000 0.450000 0.002500
v 0.450000 0.450000 0.450000
v -0.002500 0.450000 0.450000
v 0.450000 0.002500 0.450000

vt 1.000000 0.250000
vt 1.000000 0.000000
vt 0.750000 0.000000
vt 0.750000 1.000000
vt 1.000000 1.000000
vt 1.000000 0.750000
vt 0.000000 0.750000
vt 0.000000 1.000000
vt 0.250000 1.000000
vt 0.000000 0.000000

vn 0.000000 1.000000 -0.000000
vn 0.000000 0.000000 1.000000
vn 1.000000 -0.000000 -0.000000
vn 0.000000 -1.000000 0.000000
vn 0.000000 0.000000 -1.000000
vn -1.000000 0.000000 0.000000
vn -0.574306 0.577345 -0.580384
vn -0.574306 -0.580384 0.577345
vn 0.577350 -0.577350 -0.577350

usemtl Velvet.2.2.3.2.2.2.2
f 43/47/46 41/46/46 42/45/46
f 44/50/47 41/49/47 43/48/47
f 42/53/48 41/52/48 44/51/48
f 46/46/49 47/47/49 45/45/49
f 46/49/50 48/50/50 47/48/50
f 46/52/51 45/53/51 48/51/51
f 45/52/52 47/49/52 43/46/52 42/54/52
f 47/52/53 48/49/53 44/46/53 43/54/53
f 48/52/54 45/49/54 42/46/54 44/54/54

usemtl default

g 7
v -0.500000 0.500000 0.500000
v -0.500000 -0.002500 0.500000
v -0.002500 0.500000 0.500000
v -0.500000 0.500000 -0.002500
v -0.450000 -0.002500 0.450000
v -0.450000 0.450000 0.450000
v -0.002500 0.450000 0.450000
v -0.450000 0.450000 -0.002500

vt 0.000000 0.750000
vt 0.000000 1.000000
vt 0.250000 1.000000
vt 0.250000 0.000000
vt 0.000000 0.000000
vt 0.000000 0.250000
vt 0.750000 1.000000
vt 1.000000 1.000000
vt 1.000000 0.750000
vt 1.000000 0.000000

vn 0.000000 0.000000 1.000000
vn 0.000000 1.000000 -0.000000
vn -1.000000 0.000000 0.000000
vn 0.000000 0.000000 -1.000000
vn 0.000000 -1.000000 0.000000
vn 1.000000 -0.000000 -0.000000
vn 0.580384 -0.574306 0.577345
vn 0.580384 0.577345 -0.574306
vn -0.577350 -0.577350 -0.577350

usemtl Velvet.2.2.2
f 51/57/55 49/56/55 50/55/55
f 52/60/56 49/59/56 51/58/56
f 50/63/57 49/62/57 52/61/57
f 54/56/58 55/57/58 53/55/58
f 54/59/59 56/60/59 55/58/59
f 54/62/60 53/63/60 56/61/60
f 53/56/61 55/62/61 51/64/61 50/59/61
f 55/56/62 56/62/62 52/64/62 51/59/62
f 56/56/63 53/62/63 50/64/63 52/59/63

usemtl default

g 8
v -0.500000 0.500000 -0.500000
v 0.002500 0.500000 -0.500000
v -0.500000 0.002500 -0.500000
v -0.500000 0.500000 -0.002500
v 0.002500 0.450000 -0.450000
v -0.450000 0.450000 -0.450000
v -0.450000 0.002500 -0.450000
v -0.450000 0.450000 -0.002500

vt 0.750000 1.000000
vt 1.000000 1.000000
vt 1.000000 0.750000
vt 0.000000 0.750000
vt 0.000000 1.000000
vt 0.250000 1.000000
vt 0.000000 0.000000
vt 1.000000 0.000000

vn 0.000000 0.000000 -1.000000
vn -1.000000 0.000000 0.000000
vn 0.000000 1.000000 -0.000000
vn 0.000000 0.000000 1.000000
vn 1.000000 -0.000000 -0.000000
vn 0.000000 -1.000000 0.000000
vn 0.574306 -0.580384 -0.577345
vn -0.577350 -0.577350 0.577350
vn 0.574306 0.577345 0.580384

usemtl Velvet
f 59/67/64 57/66/64 58/65/64
f 60/70/65 57/69/65 59/68/65
f 58/70/66 57/69/66 60/68/66
f 62/66/67 63/67/67 61/65/67
f 62/69/68 64/70/68 63/68/68
f 62/69/69 61/70/69 64/68/69
f 61/69/70 63/66/70 59/72/70 58/71/70
f 63/69/71 64/66/71 60/72/71 59/71/71
f 64/69/72 61/66/72 58/72/72 60/71/72

usemtl default

g 9
v 0.450000 -0.002500 -0.450000
v -0.450000 0.002500 -0.450000
v 0.002500 0.450000 -0.450000
v 0.002500 -0.450000 -0.450000
v 0.002500 -0.500000 -0.500000
v 0.500000 -0.002500 -0.500000
v 0.002500 0.500000 -0.500000
v -0.500000 0.002500 -0.500000

vt 0.000000 0.000000
vt 1.000000 0.000000
vt 1.000000 1.000000
vt 0.000000 1.000000
vt 0.250000 0.000000
vt 0.000000 0.750000
vt 0.750000 1.000000
vt 1.000000 0.250000

vn -0.574306 0.580384 0.577345
vn 0.000000 0.000000 -1.000000
vn 0.580384 0.574306 0.577345
vn -0.577350 -0.577350 0.577350
vn 0.000000 0.000000 1.000000
vn 0.577350 -0.577350 0.577350

usemtl Velvet.2
f 66/76/73 67/75/73 71/74/73 72/73/73
f 72/80/74 71/79/74 70/78/74 69/77/74
f 67/76/75 65/75/75 70/74/75 71/73/75
f 68/76/76 66/75/76 72/74/76 69/73/76
f 65/78/77 67/79/77 66/80/77 68/77/77
f 65/76/78 68/75/78 69/74/78 70/73/78

usemtl default

g 10
v -0.002500 0.450000 0.450000
v -0.450000 0.450000 -0.002500
v -0.002500 0.500000 0.500000
v 0.002500 0.500000 -0.500000
v -0.500000 0.500000 -0.002500
v 0.002500 0.450000 -0.450000
v 0.500000 0.500000 0.002500
v 0.450000 0.450000 0.002500

vt 0.000000 0.000000
vt 1.000000 0.000000
vt 1.000000 1.000000
vt 0.000000 1.000000
vt 0.250000 0.000000
vt 0.000000 0.750000
vt 0.750000 1.000000
vt 1.000000 0.250000

vn 0.580384 -0.577345 -0.574306
vn 0.000000 1.000000 -0.000000
vn 0.574306 -0.577345 0.580384
vn -0.580384 -0.577345 0.574306
vn -0.000000 -1.000000 0.000000
vn -0.574306 -0.577345 -0.580384

usemtl Velvet.2.2
f 80/84/79 78/83/79 76/82/79 79/81/79
f 79/88/80 76/87/80 77/86/80 75/85/80
f 73/84/81 80/83/81 79/82/81 75/81/81
f 74/84/82 73/83/82 75/82/82 77/81/82
f 74/86/83 78/87/83 80/88/83 73/85/83
f 78/84/84 74/83/84 77/82/84 76/81/84

usemtl default

g 11
v -0.002500 -0.500000 0.500000
v 0.450000 -0.450000 0.002500
v -0.450000 -0.450000 -0.002500
v 0.002500 -0.500000 -0.500000
v -0.500000 -0.500000 -0.002500
v 0.499999 -0.500000 0.002500
v -0.002500 -0.450000 0.450000
v 0.002500 -0.450000 -0.450000

vt 0.250000 0.000000
vt 0.000000 0.750000
vt 0.750000 1.000000
vt 1.000000 0.250000
vt 0.000000 0.000000
vt 1.000000 0.000000
vt 1.000000 1.000000
vt 0.000000 1.000000

vn 0.000000 -1.000000 0.000000
vn -0.574306 0.577345 -0.580384
vn -0.580384 0.577345 0.574306
vn 0.000000 1.000000 -0.000000
vn 0.574306 0.577345 0.580384
vn 0.580384 0.577345 -0.574306

usemtl Velvet.2.3
f 86/92/85 81/91/85 85/90/85 84/89/85
f 83/96/86 88/95/86 84/94/86 85/93/86
f 87/96/87 83/95/87 85/94/87 81/93/87
f 83/90/88 87/91/88 82/92/88 88/89/88
f 82/96/89 87/95/89 81/94/89 86/93/89
f 88/96/90 82/95/90 86/94/90 84/93/90

usemtl default

g 12
v 0.450000 -0.450000 0.002500
v 0.500000 0.002500 0.500000
v 0.500000 -0.002500 -0.500000
v 0.500000 -0.500000 0.002500
v 0.500000 0.500000 0.002500
v 0.450000 0.450000 0.002500
v 0.450000 0.002500 0.450000
v 0.450000 -0.002500 -0.450000

vt 0.000000 0.000000
vt 1.000000 0.000000
vt 1.000000 1.000000
vt 0.000000 1.000000
vt 0.250000 0.000000
vt 0.000000 0.750000
vt 0.750000 1.000000
vt 1.000000 0.250000

vn -0.577345 -0.574306 0.580384
vn 1.000000 -0.000000 -0.000000
vn -0.577350 0.577350 0.577350
vn -1.000000 0.000000 0.000000
vn -0.577350 0.577350 -0.577350
vn -0.577345 -0.580384 -0.574306

usemtl Velvet.2.2.3.2.2.2
f 95/100/91 89/99/91 92/98/91 90/97/91
f 91/104/92 93/103/92 90/102/92 92/101/92
f 94/100/93 95/99/93 90/98/93 93/97/93
f 95/102/94 94/103/94 96/104/94 89/101/94
f 96/100/95 94/99/95 93/98/95 91/97/95
f 89/100/96 96/99/96 91/98/96 92/97/96

usemtl default

g 13
v -0.002500 -0.500000 0.500000
v -0.500000 -0.002500 0.500000
v -0.002500 0.500000 0.500000
v 0.500000 0.002500 0.500000
v -0.002500 -0.450000 0.450000
v -0.450000 -0.002500 0.450000
v -0.002500 0.450000 0.450000
v 0.450000 0.002500 0.450000

vt 0.250000 0.000000
vt 0.000000 0.750000
vt 0.750000 1.000000
vt 1.000000 0.250000
vt 0.000000 0.000000
vt 1.000000 0.000000
vt 1.000000 1.000000
vt 0.000000 1.000000

vn 0.000000 0.000000 1.000000
vn 0.000000 0.000000 -1.000000
vn -0.577350 -0.577350 -0.577350
vn -0.580384 0.574306 -0.577345
vn 0.574306 0.580384 -0.577345
vn 0.577350 -0.577350 -0.577350

usemtl Velvet.2.2.3.2
f 100/108/97 99/107/97 98/106/97 97/105/97
f 102/106/98 103/107/98 104/108/98 101/105/98
f 102/112/99 101/111/99 97/110/99 98/109/99
f 103/112/100 102/111/100 98/110/100 99/109/100
f 104/112/101 103/111/101 99/110/101 100/109/101
f 101/112/102 104/111/102 100/110/102 97/109/102

usemtl default

g 14
v -0.500000 -0.002500 0.500000
v -0.500000 0.002500 -0.500000
v -0.500000 -0.500000 -0.002500
v -0.500000 0.500000 -0.002500
v -0.450000 -0.002500 0.450000
v -0.450000 0.002500 -0.450000
v -0.450000 -0.450000 -0.002500
v -0.450000 0.450000 -0.002500

vt 0.250000 0.000000
vt 0.000000 0.750000
vt 0.750000 1.000000
vt 1.000000 0.250000
vt 0.000000 0.000000
vt 1.000000 0.000000
vt 1.000000 1.000000
vt 0.000000 1.000000

vn -1.000000 0.000000 0.000000
vn 1.000000 -0.000000 -0.000000
vn 0.577345 -0.574306 -0.580384
vn 0.577350 0.577350 -0.577350
vn 0.577350 0.577350 0.577350
vn 0.577345 -0.580384 0.574306

usemtl Velvet.2.2.2.2
f 105/116/103 108/115/103 106/114/103 107/113/103
f 110/114/104 112/115/104 109/116/104 111/113/104
f 110/120/105 111/119/105 107/118/105 106/117/105
f 112/120/106 110/119/106 106/118/106 108/117/106
f 109/120/107 112/119/107 108/118/107 105/117/107
f 111/120/108 109/119/108 105/118/108 107/117/108

usemtl default

