# Blender v2.78 (sub 0) OBJ File: 'bl.blend'
# www.blender.org
mtllib bl.mtl
o Plane
v -0.479089 0.033119 0.500000
v -0.500000 0.033119 0.479089
v -0.479089 0.012208 0.479089
v -0.479089 0.012208 -0.479089
v -0.500000 0.033119 -0.479089
v -0.479089 0.033119 -0.500000
v -0.479089 1.012208 0.479089
v -0.500000 0.991297 0.479089
v -0.479089 0.991297 0.500000
v -0.479089 0.991297 -0.500000
v -0.500000 0.991297 -0.479089
v -0.479089 1.012208 -0.479089
v -0.500000 0.033119 0.416667
v -0.479089 0.012208 0.416667
v -0.479089 0.012208 -0.416666
v -0.500000 0.033119 -0.416666
v -0.500000 0.991297 -0.416666
v -0.479089 1.012208 -0.416666
v -0.479089 1.012208 0.416667
v -0.500000 0.991297 0.416667
v -0.500000 0.928874 0.479089
v -0.479089 0.928874 0.500000
v -0.479089 0.095541 0.500000
v -0.500000 0.095541 0.479089
v -0.500000 0.095541 -0.479089
v -0.479089 0.095541 -0.500000
v -0.479089 0.928874 -0.500000
v -0.500000 0.928874 -0.479089
v -0.479089 0.178874 0.333333
v -0.500000 0.162145 0.350062
v -0.500000 0.862270 0.350062
v -0.479089 0.845541 0.333333
v -0.500000 0.162145 -0.350062
v -0.479089 0.178874 -0.333333
v -0.479089 0.845541 -0.333333
v -0.500000 0.862270 -0.350062
v 0.500000 0.095541 0.479089
v 0.479089 0.095541 0.500000
v 0.479089 0.033119 0.500000
v 0.479089 0.012208 0.479089
v 0.500000 0.033119 0.479089
v 0.500000 0.033119 -0.416667
v 0.479089 0.012208 -0.416667
v 0.479089 0.012208 -0.479089
v 0.479089 0.033119 -0.500000
v 0.500000 0.033119 -0.479089
v 0.500000 0.928874 -0.479089
v 0.479089 0.928874 -0.500000
v 0.479089 0.991297 -0.500000
v 0.479089 1.012208 -0.479089
v 0.500000 0.991297 -0.479089
v 0.500000 0.991297 0.416667
v 0.479089 1.012208 0.416667
v 0.479089 1.012208 0.479089
v 0.479089 0.991297 0.500000
v 0.500000 0.991297 0.479089
v 0.479089 0.012208 0.416667
v 0.500000 0.033119 0.416667
v 0.479089 1.012208 -0.416667
v 0.500000 0.991297 -0.416667
v 0.479089 0.845541 0.333333
v 0.500000 0.862270 0.350062
v 0.500000 0.862270 -0.350062
v 0.479089 0.845541 -0.333333
v 0.479089 0.928874 0.500000
v 0.500000 0.928874 0.479089
v 0.479089 0.095541 -0.500000
v 0.500000 0.095541 -0.479089
v 0.500000 0.162145 0.350062
v 0.479089 0.178874 0.333333
v 0.479089 0.178874 -0.333333
v 0.500000 0.162145 -0.350062
vt 0.0003 0.6595
vt 0.0003 0.6417
vt 0.2021 0.6417
vt 0.2021 0.6595
vt 0.7720 0.7267
vt 0.7568 0.7267
vt 0.7568 0.4886
vt 0.7720 0.4886
vt 0.5529 0.7267
vt 0.5529 0.4886
vt 0.0003 0.4038
vt 0.2021 0.4038
vt 0.3593 0.0377
vt 0.3425 0.0055
vt 0.5531 0.0055
vt 0.5363 0.0377
vt 0.5370 0.2559
vt 0.5370 0.2737
vt 0.3353 0.2737
vt 0.3353 0.2559
vt 0.3145 0.5360
vt 0.5215 0.5360
vt 0.5215 0.7703
vt 0.3145 0.7703
vt 0.2990 0.5360
vt 0.2990 0.7703
vt 0.8098 0.0045
vt 0.8098 0.1706
vt 0.5747 0.1706
vt 0.5747 0.0045
vt 0.5363 0.2119
vt 0.5689 0.0211
vt 0.5689 0.2285
vt 0.5689 0.0055
vt 0.3425 0.2440
vt 0.3593 0.2119
vt 0.5531 0.2440
vt 0.3267 0.0211
vt 0.3267 0.0055
vt 0.3267 0.2285
vt 0.5689 0.2440
vt 0.7405 0.4559
vt 0.7405 0.2820
vt 0.7720 0.2654
vt 0.7720 0.4724
vt 0.5370 0.5360
vt 0.5370 0.7703
vt 0.5692 0.2820
vt 0.5529 0.2499
vt 0.7568 0.2499
vt 0.7568 0.4879
vt 0.7720 0.4879
vt 0.7440 0.7322
vt 0.7440 0.9255
vt 0.5453 0.9255
vt 0.5453 0.7322
vt 0.5377 0.2654
vt 0.5377 0.2499
vt 0.5370 0.5115
vt 0.3353 0.5115
vt 0.3267 0.2440
vt 0.0003 0.3860
vt 0.2021 0.3860
vt 0.7720 0.2499
vt 0.5053 0.7758
vt 0.5053 0.9692
vt 0.3066 0.9692
vt 0.3066 0.7758
vt 0.5377 0.4724
vt 0.5692 0.4559
vt 0.5377 0.7267
vt 0.5377 0.4886
vt 0.0003 0.8364
vt 0.0003 0.6703
vt 0.2354 0.6703
vt 0.2354 0.8364
vt 0.5370 0.5293
vt 0.3353 0.5293
vt 0.5529 0.4879
vt 0.7797 0.8124
vt 0.7727 0.8164
vt 0.7727 0.8084
vt 0.2128 0.1925
vt 0.2128 0.1844
vt 0.2198 0.1885
vt 0.7797 0.4372
vt 0.7727 0.4412
vt 0.7727 0.4332
vt 0.8105 0.0073
vt 0.8145 0.0003
vt 0.8186 0.0073
vt 0.3311 0.2499
vt 0.3267 0.2559
vt 0.3311 0.5353
vt 0.3267 0.5293
vt 0.2062 0.6654
vt 0.2106 0.6595
vt 0.2062 0.3800
vt 0.2106 0.3860
vt 0.7797 0.8283
vt 0.7867 0.8243
vt 0.1990 0.1842
vt 0.1990 0.1923
vt 0.3122 0.0123
vt 0.3191 0.0003
vt 0.3260 0.0045
vt 0.3191 0.0165
vt 0.7797 0.4531
vt 0.7867 0.4491
vt 0.0003 0.1815
vt 0.0142 0.1817
vt 0.0142 0.1898
vt 0.0003 0.1896
vt 0.8802 0.6245
vt 0.8732 0.6125
vt 0.8802 0.6085
vt 0.8872 0.6205
vt 0.8802 0.9997
vt 0.8732 0.9877
vt 0.8802 0.9837
vt 0.8872 0.9957
vt 0.2197 0.1724
vt 0.2267 0.1765
vt 0.2901 0.6489
vt 0.2113 0.5145
vt 0.2198 0.5145
vt 0.2948 0.6425
vt 0.2955 0.5320
vt 0.2955 0.3842
vt 0.3028 0.3800
vt 0.3028 0.5353
vt 0.3260 0.3800
vt 0.3260 0.5353
vt 0.3187 0.5320
vt 0.3187 0.3842
vt 0.2948 0.3865
vt 0.2901 0.3800
vt 0.3425 0.2492
vt 0.3267 0.2492
vt 0.3267 0.5115
vt 0.5531 0.0003
vt 0.5689 0.0003
vt 0.2106 0.4038
vt 0.3267 0.2737
vt 0.2106 0.6417
vt 0.5689 0.2492
vt 0.5531 0.2492
vt 0.3267 0.0003
vt 0.3425 0.0003
vt 0.5696 0.1748
vt 0.5696 0.0003
vt 0.2406 0.6661
vt 0.2406 0.8406
vt 0.5377 0.9304
vt 0.5377 0.7273
vt 0.2990 0.9740
vt 0.2990 0.7710
vt 0.8105 0.2187
vt 0.8186 0.2187
vt 0.8802 0.6251
vt 0.8872 0.6291
vt 0.3260 0.3754
vt 0.3191 0.3794
vt 0.8872 0.2539
vt 0.8802 0.2499
vt 0.5377 0.4879
vn 0.0000 1.0000 0.0000
vn 0.0000 -0.0000 1.0000
vn 1.0000 0.0000 0.0000
vn -0.0000 -1.0000 0.0000
vn -0.0000 0.0000 -1.0000
vn -1.0000 0.0000 0.0000
vn -0.5773 -0.5774 0.5774
vn -0.5774 -0.5774 -0.5773
vn -0.5773 0.5774 0.5773
vn -0.5774 0.5774 -0.5773
vn 0.5774 -0.5773 0.5773
vn 0.5774 -0.5774 -0.5773
vn 0.5774 0.5774 -0.5773
vn 0.5774 0.5774 0.5773
vn -0.7071 0.0000 0.7071
vn -0.7071 -0.7071 -0.0000
vn -0.7071 0.0000 -0.7071
vn -0.7071 0.7071 0.0000
vn -0.6247 0.0000 -0.7809
vn -0.6247 0.0000 0.7809
vn -0.6247 0.7809 0.0000
vn -0.6247 -0.7809 0.0000
vn 0.7071 0.0000 0.7071
vn 0.7071 -0.7071 0.0000
vn 0.7071 -0.0000 -0.7071
vn 0.7071 0.7071 0.0000
vn 0.6247 0.0000 -0.7809
vn 0.6247 0.0000 0.7809
vn 0.6247 0.7809 -0.0000
vn 0.6247 -0.7809 -0.0000
vn 0.0000 0.7071 -0.7071
vn 0.0000 -0.7071 0.7071
vn -0.0000 -0.7071 -0.7071
vn 0.0000 0.7071 0.7071
usemtl Material.002
s off
f 12/1/1 18/2/1 59/3/1 50/4/1
f 9/5/2 22/6/2 65/7/2 55/8/2
f 22/6/2 23/9/2 38/10/2 65/7/2
f 18/2/1 19/11/1 53/12/1 59/3/1
f 72/13/3 68/14/3 47/15/3 63/16/3
f 3/17/4 14/18/4 57/19/4 40/20/4
f 26/21/5 27/22/5 48/23/5 67/24/5
f 6/25/5 26/21/5 67/24/5 45/26/5
f 29/27/5 32/28/5 61/29/5 70/30/5
f 62/31/3 63/16/3 60/32/3 52/33/3
f 63/16/3 47/15/3 51/34/3 60/32/3
f 37/35/3 69/36/3 62/31/3 66/37/3
f 42/38/3 46/39/3 68/14/3 72/13/3
f 58/40/3 42/38/3 72/13/3 69/36/3
f 66/37/3 62/31/3 52/33/3 56/41/3
f 33/42/6 36/43/6 28/44/6 25/45/6
f 27/22/5 10/46/5 49/47/5 48/23/5
f 31/48/6 20/49/6 17/50/6 36/43/6
f 16/51/6 33/42/6 25/45/6 5/52/6
f 34/53/1 29/54/1 70/55/1 71/56/1
f 21/57/6 8/58/6 20/49/6 31/48/6
f 14/18/4 15/59/4 43/60/4 57/19/4
f 41/61/3 58/40/3 69/36/3 37/35/3
f 19/11/1 7/62/1 54/63/1 53/12/1
f 36/43/6 17/50/6 11/64/6 28/44/6
f 32/65/4 35/66/4 64/67/4 61/68/4
f 24/69/6 21/57/6 31/48/6 30/70/6
f 23/9/2 1/71/2 39/72/2 38/10/2
f 35/73/2 34/74/2 71/75/2 64/76/2
f 15/59/4 4/77/4 44/78/4 43/60/4
f 13/79/6 30/70/6 33/42/6 16/51/6
f 1/80/7 2/81/7 3/82/7
f 4/83/8 5/84/8 6/85/8
f 7/86/9 8/87/9 9/88/9
f 10/89/10 11/90/10 12/91/10
f 39/92/11 40/20/11 41/93/11
f 44/78/12 45/94/12 46/95/12
f 49/96/13 50/4/13 51/97/13
f 54/63/14 55/98/14 56/99/14
f 24/100/15 2/81/15 1/80/15 23/101/15
f 16/102/16 5/84/16 4/83/16 15/103/16
f 28/104/17 11/105/17 10/106/17 27/107/17
f 20/108/18 8/87/18 7/86/18 19/109/18
f 2/110/16 13/111/16 14/112/16 3/113/16
f 13/111/16 16/102/16 15/103/16 14/112/16
f 11/114/18 17/115/18 18/116/18 12/117/18
f 17/115/18 20/108/18 19/109/18 18/116/18
f 8/118/15 21/119/15 22/120/15 9/121/15
f 21/119/15 24/100/15 23/101/15 22/120/15
f 5/84/17 25/122/17 26/123/17 6/85/17
f 25/122/17 28/104/17 27/107/17 26/123/17
f 30/124/19 31/125/19 32/126/19 29/127/19
f 34/128/20 35/129/20 36/130/20 33/131/20
f 33/132/21 30/133/21 29/134/21 34/135/21
f 35/136/22 32/126/22 31/125/22 36/137/22
f 38/138/23 39/139/23 41/61/23 37/35/23
f 43/60/24 44/78/24 46/95/24 42/140/24
f 48/141/25 49/142/25 51/34/25 47/15/25
f 53/12/26 54/63/26 56/99/26 52/143/26
f 40/20/24 57/19/24 58/144/24 41/93/24
f 57/19/24 43/60/24 42/140/24 58/144/24
f 50/4/26 59/3/26 60/145/26 51/97/26
f 59/3/26 53/12/26 52/143/26 60/145/26
f 55/146/23 65/147/23 66/37/23 56/41/23
f 65/147/23 38/138/23 37/35/23 66/37/23
f 45/148/25 67/149/25 68/14/25 46/39/25
f 67/149/25 48/141/25 47/15/25 68/14/25
f 70/30/27 61/29/27 62/150/27 69/151/27
f 72/152/28 63/153/28 64/76/28 71/75/28
f 71/56/29 70/55/29 69/154/29 72/155/29
f 63/156/30 62/157/30 61/68/30 64/67/30
f 49/158/31 10/89/31 12/91/31 50/159/31
f 3/82/32 40/160/32 39/161/32 1/80/32
f 6/85/33 45/162/33 44/163/33 4/83/33
f 54/164/34 7/86/34 9/88/34 55/165/34
f 2/166/6 24/69/6 30/70/6 13/79/6
